<?xml version="1.0" encoding="UTF-8"?>
<svg id="Ebene_1" data-name="Ebene 1" xmlns="http://www.w3.org/2000/svg" xmlns:xlink="http://www.w3.org/1999/xlink" viewBox="0 0 1000 1000">
  <defs>
    <style>
      .cls-1 {
        fill: url(#Unbenannter_Verlauf_8-2);
      }

      .cls-1, .cls-2 {
        stroke: #4a994e;
        stroke-miterlimit: 10;
      }

      .cls-3 {
        clip-path: url(#clippath);
      }

      .cls-4 {
        fill: none;
      }

      .cls-4, .cls-5, .cls-6, .cls-7, .cls-8, .cls-9, .cls-10, .cls-11, .cls-12, .cls-13, .cls-14 {
        stroke-width: 0px;
      }

      .cls-5 {
        fill: url(#Unbenannter_Verlauf_8-3);
      }

      .cls-6 {
        fill: url(#Unbenannter_Verlauf_115);
      }

      .cls-7 {
        fill: #fff;
        opacity: .9;
      }

      .cls-2 {
        fill: url(#Unbenannter_Verlauf_8);
      }

      .cls-8 {
        fill: url(#Unbenannter_Verlauf_21);
      }

      .cls-9 {
        fill: #438d46;
      }

      .cls-10 {
        fill: #e31f1a;
      }

      .cls-11 {
        fill: #d61016;
      }

      .cls-12 {
        fill: #ac1917;
      }

      .cls-13 {
        fill: #eb6768;
      }

      .cls-14 {
        opacity: .2;
      }
    </style>
    <linearGradient id="Unbenannter_Verlauf_115" data-name="Unbenannter Verlauf 115" x1="5.15" y1="974.08" x2="1080.55" y2="-56.18" gradientUnits="userSpaceOnUse">
      <stop offset="0" stop-color="#00a99d"/>
      <stop offset="1" stop-color="#b6f6ca"/>
    </linearGradient>
    <linearGradient id="Unbenannter_Verlauf_8" data-name="Unbenannter Verlauf 8" x1="257.54" y1="174.39" x2="652.4" y2="174.39" gradientUnits="userSpaceOnUse">
      <stop offset="0" stop-color="#4a994e"/>
      <stop offset="1" stop-color="#57b35f"/>
    </linearGradient>
    <linearGradient id="Unbenannter_Verlauf_8-2" data-name="Unbenannter Verlauf 8" x1="518.75" y1="208.01" x2="786.69" y2="208.01" xlink:href="#Unbenannter_Verlauf_8"/>
    <linearGradient id="Unbenannter_Verlauf_8-3" data-name="Unbenannter Verlauf 8" x1="481.79" y1="158.82" x2="521.85" y2="138.79" xlink:href="#Unbenannter_Verlauf_8"/>
    <radialGradient id="Unbenannter_Verlauf_21" data-name="Unbenannter Verlauf 21" cx="467.74" cy="71.48" fx="467.74" fy="71.48" r="28" gradientTransform="translate(34.42 249.88) rotate(-25.86) scale(1 .4)" gradientUnits="userSpaceOnUse">
      <stop offset="0" stop-color="#c7d87b"/>
      <stop offset=".37" stop-color="#c4d77a"/>
      <stop offset=".54" stop-color="#bdd478"/>
      <stop offset=".67" stop-color="#b0d075"/>
      <stop offset=".78" stop-color="#9eca70"/>
      <stop offset=".87" stop-color="#87c26b"/>
      <stop offset=".95" stop-color="#6ab963"/>
      <stop offset="1" stop-color="#57b35f"/>
    </radialGradient>
    <clipPath id="clippath">
      <rect class="cls-4" x=".33" y="1104" width="999.67" height="1001"/>
    </clipPath>
  </defs>
  <rect class="cls-6" y="0" width="1000" height="1000"/>
  <ellipse class="cls-14" cx="483.65" cy="766.11" rx="309.11" ry="153.68"/>
  <g>
    <path class="cls-12" d="M513.11,215.22c-47.58,1.25-108.93-31.3-206.59-2.5-64.19,18.93-211.59,123.95-205.33,311.76,6.26,187.81,162.76,348.07,373.11,348.07s355.58-121.45,400.65-225.37c45.07-103.92,48.83-251.66-55.09-353.07-103.92-101.41-226.61-80.99-306.75-78.88Z"/>
    <path class="cls-11" d="M514.35,216.53c-44.88,1.15-102.75-28.64-194.87-2.29-60.55,17.32-199.59,113.43-193.69,285.3,5.91,171.87,153.53,318.53,351.95,318.53s335.41-111.14,377.93-206.24c42.52-95.1,46.06-230.3-51.97-323.11-98.03-92.81-213.75-74.12-289.35-72.18Z"/>
    <path class="cls-10" d="M861.64,379.88c-1.33-6.36-2.82-12.66-4.48-18.9-12.66-25.74-30.16-50.21-53.46-72.27-98.03-92.81-213.75-74.12-289.35-72.19-44.88,1.15-102.75-28.64-194.87-2.29-39.31,11.25-111.69,55.72-156.03,132.55-25.69,102.69,7.18,212.09,84.23,284.73,50.47,47.58,151.89,69.51,234.59,69.51,202.34,0,323.28-110.53,366.63-195.46,19.39-38.11,21.45-83.83,12.73-125.69Z"/>
    <path class="cls-13" d="M206.43,366.73c-3-3-101.48,176.52,67.55,313.62,0,0-60.1-105.17-33.8-191.56,22.36-73.46,43.2-86.39,43.2-86.39,0,0-43.34-2.08-76.94-35.67Z"/>
    <path class="cls-13" d="M751.53,444.37c26.85-5.65,59.07-35.59,62.48-51.05,0,0,63.99,125.83-21.44,233.86-45.22,57.18-76.51,61.85-76.51,61.85,0,0,57.96-93.75,48.2-165.4-9.76-71.65-12.73-79.26-12.73-79.26Z"/>
    <ellipse class="cls-7" cx="755.49" cy="468.05" rx="20.77" ry="33.88" transform="translate(-77.86 159.23) rotate(-11.45)"/>
    <ellipse class="cls-7" cx="764.06" cy="538.16" rx="13.81" ry="22.52"/>
    <g>
      <path class="cls-12" d="M445.5,243.39c-88.89,13.77-107.68,36.31-118.94,58.85-11.27,22.54-30.05,68.86-81.38,75.12,0,0,50.08-2.5,75.12-41.32,25.04-38.81,75.12-66.98,100.16-69.49,25.04-2.5,36.31-13.15,36.31-13.15l-11.27-10.02Z"/>
      <path class="cls-12" d="M324.06,389.88c1.25-3.76,31.3-71.37,63.85-96.41,32.55-25.04,68.86-40.07,68.86-40.07l37.56.63s-41.53,15.66-71.37,35.06c-50.08,32.55-98.91,100.79-98.91,100.79Z"/>
      <path class="cls-12" d="M516.87,254.66c23.79,13.77,58.85,27.54,78.88,65.11,20.03,37.56,27.54,58.85,27.54,58.85,0,0-1.25-50.08-26.29-78.88-25.04-28.8-48.83-53.84-48.83-53.84l-31.3,8.76Z"/>
      <path class="cls-12" d="M518.12,239.63c22.54-13.77,71.37-17.53,105.17,1.25,33.8,18.78,81.38,71.37,105.17,73.87l23.79,2.5s-35.06,10.02-71.37-15.02c-36.31-25.04-58.85-41.94-85.14-51.96-21.06-8.02-65.11-4.38-65.11-4.38l-12.52-6.26Z"/>
    </g>
    <g>
      <path class="cls-2" d="M568.73,215.16c-29.75,19.18-47.82,26.21-58.09,28.66.04-1.67-1.53-2.99-3.84-4.01-1.24-5.12-25.2,6.33-78.82-53.38-55.09-61.35-46.12-89.53-124.42-103.76-13.77-2.5-46.01,2.35-46.01,2.35,20.03-1.25,70.27,10.02,96.56,42.57,26.29,32.55,45.07,80.13,76.37,101.41,8.71,5.93,18.49,9.91,28.07,12.44-.19.03-.34.05-.53.08-31.3,5.01-68.86,6.26-180.29-27.54,0,0,96.41,51.33,140.23,52.59,39.87,1.14,55.73-.66,77.16-10.64,1.05,4.2,12.68,7.98,24.02,7.67,37.2-1.03,80.58-37.66,97.62-69.94,17.05-32.28,35.64-95.49,35.64-95.49,0,0-29.44,82.04-83.68,117.01Z"/>
      <ellipse class="cls-9" cx="508.2" cy="247.67" rx="12.44" ry="25.79" transform="translate(196.81 719.53) rotate(-82.56)"/>
      <path class="cls-1" d="M786.68,167.95c.26-.97-24.27,29.68-69.82,38.37-17.58,3.35-35.73,1.7-52.8-3.71-17.16-5.44-43.53-12.93-56.43-12.13-20.03,1.25-80.13,23.79-88.89,57.59,0,0,57.59-45.07,135.22-26.29,77.63,18.78,122.7-16.28,132.72-53.84Z"/>
      <path class="cls-5" d="M505.85,252.21c-6.79-1.7-11.01-8.56-9.31-15.35,8.96-35.75,11.82-87.62-17.23-115.55-32.55-31.3-41.32-33.8-41.32-33.8,0,0,7.51-18.78,23.79-27.54,16.28-8.76,36.31,0,36.31,0,0,0,40.07,58.85,32.55,121.45-3.84,31.97-7.02,50.55-9.22,61.08-1.48,7.08-8.56,11.48-15.57,9.72h0Z"/>
      <path class="cls-8" d="M437.82,87.76s22.4-.71,43.95-11.3c11.5-5.65,15.89-16.59,15.89-16.59,0,0-15.21-10.24-34.83-.35-19.61,9.89-25.02,28.24-25.02,28.24Z"/>
    </g>
  </g>
  <g class="cls-3">
    <path class="cls-14" d="M2987.31,751.39v585.42h-327.96v345.02h-807.12v-345.02h-308.79v-594.93c-442.34,100.96-791.07,294.44-958.49,534.18h94.73v163.05h154.15v356.12h-154.15v147.05h-79.26c259.49,345.13,898.1,589.2,1644.81,589.2,976.87,0,1768.79-417.7,1768.79-932.96,0-375.48-420.53-699.13-1026.7-847.12Z"/>
  </g>
</svg>